<?xml version="1.0"?>
<svg xmlns:rdf="http://www.w3.org/1999/02/22-rdf-syntax-ns#" xmlns="http://www.w3.org/2000/svg" xmlns:cc="http://creativecommons.org/ns#" xmlns:xlink="http://www.w3.org/1999/xlink" xmlns:dc="http://purl.org/dc/elements/1.1/" xmlns:svg="http://www.w3.org/2000/svg" id="svg2" viewBox="0 0 746.49 766.28" version="1.1">
  <g id="layer1" >
    <path id="path3919" d="m627.87 353.58c-0.42538-1.2603-0.97558-3.9603-1.2227-6-1.0955-9.0427-3.51-24.841-4.0054-26.209-0.54451-1.5026-1.5168-9.2632-3.3778-26.961-3.4865-8.5982-2.2378-20.438-3.6809-26.039-0.35949-1.375-0.59526-2.7912-0.52392-3.147 0.0713-0.35585-0.51951-5.7558-1.313-12-3.034-23.876-3.8941-26.52-9.6609-29.699-1.6504-0.90984-6.2243-3.5182-10.164-5.7963-9.6938-5.6051-12.969-3.8777-9.3352 4.9242 3.9115 14.166-6.863 7.0534-11.747 12.998-1.6306 2.033-2.4598 2.3808-3.831 1.6073-0.9625-0.54296-1.75-1.5917-1.75-2.3305 0-0.73883-0.675-1.6023-1.5-1.9189-1.0684-0.40997-1.5-2.0784-1.5-5.7981 0-4.6699-0.14513-5.024-1.3716-3.3468-1.275 1.7437-1.5152 1.5509-3.4124-2.738-1.1225-2.5376-2.6019-7.1206-3.2876-10.185-1.1462-5.122-1.4701-5.5708-4.0195-5.5708-4.1351 0-6.9459-4.566-7.5473-12.26l-0.48773-6.2399 4.2771-3.2748c2.3524-1.8012 4.8695-3.0475 5.5934-2.7697 2.274 0.87262 3.7914-4.0142 2.2374-7.2055-0.73653-1.5125-1.3782-2.975-1.4258-3.25-3.136-6.6005-5.6303-22.548-10.634-28-1.7168-3.1101-1.0292-6.7922-1.8188-10.5-1.0437-4.7463 1.2744-14.572 5.1159-21.684 1.9408-3.5934 3.788-8.0595 4.1048-9.9245 0.31685-1.8651 1.0327-6.0911 1.5907-9.3911 0.55805-3.3 2.1554-11.131 3.5498-17.401 1.3943-6.2708 2.5352-12.253 2.5352-13.293 0-1.0405 0.76851-4.4995 1.7078-7.6866 1.609-5.4595 1.995-5.9223 6.6711-7.998 2.7298-1.2118 5.4766-2.0063 6.1039-1.7655 0.6273 0.24072 2.2378-0.40568 3.5789-1.4364 1.3411-1.0308 2.9851-1.8841 3.6534-1.8964 0.66828-0.0122 3.2724-0.72072 5.7869-1.5744 2.5145-0.85369 5.7927-1.7016 7.285-1.8842 1.4922-0.18259 5.5256-0.65329 8.9631-1.046 3.4375-0.39272 6.25-1.1198 6.25-1.6158 0-0.49599-0.11885-0.90181-0.26412-0.90181-0.14526 0-2.7264-0.9-5.7359-2-3.9272-1.4354-7.9624-2-14.295-2-7.7558 1.0443-12.626-4.2485-8.6294-8.5959 2.1098-2.2592 3.0405-2.5377 7.1743-2.1468 2.6125 0.24703 4.75 0.0652 4.75-0.40406 0-0.46927 0.675-0.85321 1.5-0.85321-2.0461-4.1584-15.068-3.9386-15.5-11.622 0-0.75766 0.47656-1.3776 1.059-1.3776 0.58246 0 0.7809-0.45 0.44098-1-0.41011-0.66356 26.99-1 81.441-1h82.059v354h-32.038l0.63027-2.5112c0.34666-1.3812 2.0427-4.0027 3.7691-5.8255 1.7263-1.8229 3.837-4.2743 4.6903-5.4476 0.85335-1.1733 2.601-2.5215 3.8837-2.996 1.6971-0.62782 2.4021-1.752 2.589-4.1286 0.21928-2.7875-0.30482-3.6558-3.5783-5.9285-2.1094-1.4644-4.3187-3.7876-4.9097-5.1626-3.0623-4.8234-8.4104-6.1587-12.031-10.25-0.003-0.4125-0.63202-0.75-1.3982-0.75-2.1014 0-2.802-2.9478-1.1041-4.6457 2.1961-2.1961 1.8543-3.0328-1.5139-3.7065-1.8964-0.37929-3.4366-1.5361-4.1605-3.125-3.5672-4.7886-14.593-8.6991-15.828-14.46 0-0.34437-1.9125-1.2046-4.25-1.9116-3.0628-0.92639-5.0281-2.4017-7.0355-5.2815-1.532-2.1978-4.127-4.5601-5.7666-5.2495-1.6396-0.68941-2.7874-1.4485-2.5505-1.6868 0.23688-0.23833-4.7662-0.43332-11.118-0.43332-12.185 0-13.621-0.46147-16.12-5.1802-0.63513-1.1991-2.133-2.3241-3.3286-2.5-2.9238-0.43018-3.5613-2.816-0.93588-3.5025 1.158-0.30281 2.1054-0.76978 2.1054-1.0377 0-0.40319-4.2384-4.9737-13.869-14.956-2.5934-2.6881-2.225-0.52863 1.418 8.3116 5.7629 8.3619 8.3862 25.589 12.46 33.365 0.90231 1.6082-1.3891 3.3907-0.67309 5.4316 0.35805 0.93309 0.88475 14.83 1.1704 30.882 0.28567 16.052 0.76906 29.973 1.0742 30.936 0.35487 1.1194 0.0301 1.75-0.90129 1.75-1.2082 0-1.5948-3.8727-2.2711-22.75-1.3323-6.2749 1.454-47.888-2.1706-50.177-3.5874-5.562-3.2542-18.733-9.4022-24.164-0.51721-0.3254-0.81746-1.0004-0.6672-1.5 0.42002-1.3965-3.4506-11.408-4.4105-11.408-0.46627 0-0.61785 1.4625-0.33684 3.25 2.1529 19.852 5.9646 35.541 8.018 54.795 0.31519 3 0.78645 7.0295 1.0472 8.9545 0.26078 1.925 0.72639 5.525 1.0347 8 0.30829 2.475 1.4764 10.682 2.5959 18.237 1.9876 13.415 2.2072 20.04 0.4962 14.971zm36.388-94.88c0-0.36919-0.68401-1.4271-1.52-2.3509-0.93639-1.0347-1.6083-4.003-1.75-7.7308-0.12649-3.3281-0.50928-5.8797-0.85064-5.6701-0.34137 0.20961-2.2138 3.0556-4.161 6.3243-3.5257 5.9186-3.8394 8.1862-0.81032 5.8572 1.1052-0.84975 1.0381-0.573-0.21912 0.90496-1.3972 1.6424-1.5115 2.249-0.5 2.6538 1.9471 0.77929 9.8111 0.78843 9.8111 0.0114zm-15.69-3.5787c1.3274-1.2375 4.0823-4.8656 6.1222-8.0624 3.1647-4.9597 3.515-6.0472 2.3881-7.4126-1.0404-1.2606-1.0554-1.6895-0.0707-2.0209 1.8845-0.63427 1.5018-2.0393-0.75-2.754-1.4883-0.47236-2-1.513-2-4.0674 0-1.8879 0.375-3.4326 0.83333-3.4326 0.45834 0 0.83334-0.675 0.83334-1.5s-0.375-1.5-0.83334-1.5c-0.45828 0-0.83328 0.41425-0.83328 0.92054 0 0.5063-1.4625 1.2316-3.25 1.6119-1.7875 0.38024-6.0575 1.8785-9.4889 3.3295-6.1682 2.6082-6.239 2.6834-6.2495 6.6381-0.0213 8.0456 6.252 20.104 9.7589 18.758 2.5304 0.0745-0.20434 2.9473 3.5398-0.50783zm7.7374-41.265c1.8182-0.57708 1.793-0.72427-0.48009-2.797-1.7765-1.6199-2.5696-3.6805-3.0555-7.9378-0.66705-5.8456 0.34927-7.5341 2.4077-4 0.96586 1.6583 1.0209 1.6566 1.0497-0.0322 0.0167-0.98023 1.0429-2.2245 2.2804-2.765 2.004-0.87535 1.9028-0.94659-0.92646-0.65176l-3.1765 0.33102 1.9075-3.739c1.0491-2.0565 2.7036-3.9065 3.6765-4.1112 1.1339-0.23859-0.38489-1.3519-4.2311-3.1014-3.3-1.501-6.3539-2.6057-6.7865-2.4548-0.43257 0.1509-1.1462-0.30761-1.5858-1.0189-0.62939-1.0184-1.2517-0.91209-2.9277 0.5-1.659 1.3978-2.3784 3.7288-3.2615 10.569-0.62318 4.8264-0.88394 9.4245-0.57946 10.218 0.30447 0.79345 0.11472 1.7139-0.42169 2.0454-0.5364 0.33151-0.85425 2.3126-0.70632 4.4023 0.30233 4.2711 2.2125 6.9515 3.172 4.451 0.32056-0.83536 1.0049-1.258 1.5208-0.93914 0.51588 0.31883 1.2206 0.12235 1.5661-0.43662 1.0905-1.7645 2.6713-1.0997 2.0488 0.86164-0.45455 1.4322-0.004 1.9911 1.8977 2.3547 1.3716 0.26219 2.6989-0.0204 2.9497-0.62795 0.25076-0.60756 0.54366-0.20466 0.65088 0.89534 0.16047 1.6463 0.27424 1.6988 0.64323 0.29699 0.24655-0.93666 1.3119-1.9771 2.3675-2.3122zm-27.048-3.9848c0-2.4101-0.38106-4.6175-0.84681-4.9053-0.81938-0.50641-1.3413-4.1558-1.408-9.8447-0.0177-1.5125-0.36886-2.75-0.7803-2.75s-1.058-1.235-1.4369-2.7444c-1.2367-4.9273-2.4317-5.5144-5.673-2.7871-1.6026 1.3485-4.5882 2.7299-6.6345 3.0696-6.0541 1.0051-6.4221 1.2461-5.6613 3.707 0.81446 2.6344 5.7598 7.139 9.678 8.8157 1.5055 0.64423 2.5284 1.5093 2.2731 1.9225-0.25532 0.41312 1.5504 2.5846 4.0127 4.8255s4.4769 4.5772 4.4769 5.1918 0.45 0.83934 1 0.49942 1-2.5899 1-5zm-31.999-47.062c2.3736-2.0504 28.058-5.7738 34.757-5.0387 4.0339 0.44266 4.2348 0.34254 3.8269-1.9073-0.41116-2.2674 1.837-5.4038 3.0232-4.2176 0.30754 0.30754 1.4217-0.30334 2.4758-1.3575 1.2736-1.2736 3.3425-1.9269 6.1667-1.9471 3.3732-0.0241 3.8889-0.2407 2.5-1.0497-0.9625-0.5606-1.75-1.5965-1.75-2.302 0-0.7348-2.029-1.6747-4.75-2.2003-4.4309-0.85595-4.7454-1.1192-4.6814-3.9176 0.10402-4.5454 1.371-8.6553 2.4607-7.9819 0.53387 0.32995 0.97068 0.14919 0.97068-0.40169s0.9-0.82827 2-0.61643 2-0.0915 2-0.67405c0-0.58257 0.80079-0.8498 1.7795-0.59386 0.97874 0.25595 2.3465-0.14157 3.0394-0.88336 1.03-1.1026 0.88773-1.3487-0.77952-1.3487-1.1217 0-2.0394-0.3884-2.0394-0.86311s-2.3625-1.6106-5.25-2.5242c-7.0386-2.227-8.0843-2.9841-7.3438-5.3172 0.64265-2.0248 8.0731-6.2955 10.953-6.2955 2.2712 0 5.6405-3.584 5.6405-6 0-1.1-0.35916-2-0.79814-2-0.72377 0-3.5343-2.695-9.0462-8.6743-1.1024-1.1959-2.5282-3.1532-3.1685-4.3496-0.83566-1.5614-1.8349-2.0471-3.5408-1.721-1.3071 0.24988-2.5048 0.13259-2.6615-0.26064-0.29714-0.74571-16.689-5.9495-20.435-6.4876-3.7696-0.54135-6.3496-1.6113-6.3496-2.6332 0-0.5454-0.42931-0.72631-0.95401-0.40202-1.34 0.82816-6.1442-0.50357-5.5113-1.5277 0.5341-0.86418-6.0474-2.5371-8.2734-2.103-0.68127 0.13287-2.0956-0.217-3.1429-0.7775-1.676-0.89698-1.9868-0.57244-2.5941 2.7088-0.37948 2.0503-1.3642 5.1592-2.1882 6.9086-1.3992 2.9705-1.3533 3.3768 0.69393 6.1459 3.0148 4.0777 3.8031 11.595 1.4846 14.157-0.96309 1.0642-1.9814 3.9782-2.2629 6.4755-0.2881 2.5561-1.0317 4.5406-1.7014 4.5406-0.65428 0-2.2054 1.1683-3.447 2.5962l-2.2574 2.5963 2.0471 5.1537c2.2541 5.6748 5.6054 21.518 6.6956 31.654 0.38456 3.575 1.1969 6.8232 1.8053 7.2183 1.5434 1.0023 8.7943-0.21492 10.607-1.7805zm-26.01-84.532c4.2875-1.8978 2.7071-10.605 0.51531-11.83l-4-2.1179-0.32635 3.7656c-2.2927 2.5407 3.8093 10.084 3.811 10.182z"/>
    <!-- <path id="path3936" d="m185.35 362.28c-3.4998-2.6157-2.4646-4.7404 4.4508-9.135 2.6601-1.6904 7.2493-7.8777 10.198-13.749 2.9489-5.8717 9.6683-18.808 14.932-28.748 5.2636-9.9395 9.5702-19.354 9.5702-20.921 0-1.5672 3.3965-9.0023 7.5477-16.522 4.1512-7.5202 7.2544-13.863 6.896-14.095-10.604-6.8635-14.421-9.6885-14.431-10.681-0.007-0.66966-3.3498-1.7814-7.4288-2.4705-5.2168-0.88137-8.6468-0.44661-11.566 1.466-2.2823 1.4954-11.012 5.0426-19.399 7.8827-16.396 5.5518-20.833 5.0206-21.971-2.6303-0.32319-2.1724-1.4064-3.9498-2.4072-3.9498-1.0007 0-1.3435 0.77035-0.76155 1.7119 0.58189 0.94152 0.21695 2.2316-0.81095 2.8669-1.0279 0.63528-1.8689 0.36356-1.8689-0.60381 0-0.96738-2.6894-1.6368-5.9765-1.4877-5.3098 0.2409-5.9354-0.24171-5.6084-4.3262 0.20246-2.5285-0.0723-7.6715-0.61049-11.429l-0.97858-6.8315-12.262 9.1982c-6.7441 5.059-18.464 13.926-26.045 19.704-12.856 9.7995-44.517 29.738-47.439 29.876-3.8788 0.18242-9.2808 7.1089-8.3425 10.697 0.74491 2.8485-0.69758 5.528-5.3326 9.9055-11.508 10.86-16.378 14.27-32.439 22.74l-15.88 8.38-0.4698-169.63c-0.2582-93.29-0.1857-169.91 0.1611-170.25 0.3467-0.3497 95.226-0.423 210.85-0.16592l210.21 0.46755-7.1718 6.8448c-20.03 19.112-28.19 26.504-32.01 29.014-7.5669 4.9611-25.642 24.455-32.739 35.308-4.165 6.3698-15.689 14.192-23.088 15.672-3.85 0.77001-9.4049 5.014-16.733 12.784-6.0334 6.3973-12.08 11.631-13.438 11.631-1.9464 0-1.863 0.86382 0.39461 4.087 1.5744 2.2479 2.8627 6.0128 2.8627 8.3665s1.4069 6.9278 3.1265 10.165c2.38 4.4801 3.3052 12.032 3.875 31.63 0.41168 14.16 1.5872 26.778 2.6122 28.04 1.025 1.2621 3.7534 8.9914 6.063 17.176 4.3225 15.318 3.8692 24.434-1.376 27.675-1.8452 1.1404-1.852 1.8968-0.0337 3.7152 3.1261 3.1261 2.8657 7.9697-0.58248 10.831-2.3813 1.9763-4.2548 1.7035-11.083-1.6138-4.5193-2.1956-8.8899-3.9921-9.7124-3.9921-0.82248 0-2.6155 3.394-3.9845 7.5422-2.2208 6.729-7.4662 13.505-14.886 19.229-7.8443 6.052-24.767 27.614-26.633 33.935-2.1576 7.3072-15.67 26.02-25.08 34.732-2.7814 2.5751-5.057 6.5665-5.057 8.8698 0 2.9619-1.0766 4.1878-3.6778 4.1878-2.0698 0-3.6778 1.226-3.6778 2.8039 0 5.4584-14.983 8.4114-20.762 4.0921zm-9.58-128.22c1.0114-0.75494 5.7522-2.8359 10.535-4.6245 4.7829-1.7885 11.357-5.2149 14.609-7.6141s7.3698-4.3622 9.1507-4.3622c3.8255 0 27.154 10.802 30.659 14.197 7.405 7.1718 14.681-3.2926 13.387-19.254-0.2002-2.4699-4.9945-3.2034-6.0096-0.91946-0.33713 0.75856-4.4102 3.1655-9.0513 5.3488-12.492 5.8763-13.629 4.3743-13.629-18.002 0-18.971-1.4897-22.939-6.9578-18.534-1.2302 0.99113-9.6845 5.9203-18.787 10.954-9.1027 5.0334-19.247 11.674-22.543 14.756-3.2962 3.0823-10.537 8.1686-16.091 11.303-11.126 6.2794-12.321 9.5001-6.012 16.215 3.4787 3.7029 5.1859 4.1676 11.493 3.1287 4.0743-0.67108 8.2352-1.8378 9.2466-2.5927zm63.443-31.586c0-2.177 5.6423-7.2321 14.178-12.702 4.8138-3.0851 6.6267-3.3954 9.8283-1.6819 3.5968 1.9249 3.8134 1.741 2.5845-2.1944-0.73774-2.3625-2.1633-4.8235-3.168-5.469-1.0047-0.64546-1.301-2.0242-0.65845-3.0638 0.64252-1.0396 0.31126-4.1442-0.73613-6.899-2.3168-6.0938 1.1612-10.879 9.0543-12.458 7.835-1.567 12.522 0.40633 14.963 6.2996 3.1308 7.5585 4.8549 6.6684 7.0676-3.6488 2.9109-13.573-1.1177-35.144-6.5635-35.144-2.052 0-2.4143-1.3362-1.4961-5.5168 0.66643-3.0342 0.56019-5.5168-0.23608-5.5168-2.0868 0-15.395 13.288-15.395 15.372 0 1.7291-8.0574 10.559-27.317 29.937l-9.8476 9.908 1.3208 16.985c0.72641 9.342 1.6981 17.62 2.1593 18.395 1.0805 1.8158 4.2622-0.1267 4.2622-2.6021z"/> -->
    <!-- <path id="path3949" d="m671.52 761.05c-2.0676-2.3176-3.7117-5.21-3.7117-6.5301 0-1.3034-1.125-5.0426-2.5-8.3095-1.375-3.2668-2.5-6.6281-2.5-7.4694 0-0.84128-1.0932-3.6673-2.4292-6.2801-3.406-6.6605-6.3203-13.31-7.1225-16.251-0.37507-1.375-2.6544-6.036-5.0651-10.358-2.4108-4.3218-4.3832-8.2593-4.3832-8.75 0-0.49068-0.39541-0.89215-0.87868-0.89215-0.94364 0-2.1656 2.8397-4.3031 10-1.2854 4.3058-1.493 4.4877-4.8094 4.2152-1.9064-0.15665-4.5477-1.0566-5.8697-2-1.322-0.94335-3.2414-2.2054-4.2654-2.8044-1.024-0.59909-1.5638-1.3872-1.1996-1.7514s-5.3646-6.7449-12.731-14.179c-14.259-14.391-15.305-15.746-16.969-21.98-2.8721-10.758-5.719-12.835-19.191-14.005-4.5561-0.39561-10.085-1.3237-12.286-2.0624-2.201-0.73874-5.6353-1.1406-7.6318-0.89293-2.4106 0.299-4.035-0.0376-4.8354-1.0022-0.77579-0.93476-2.2003-1.2534-3.9969-0.89411-1.5582 0.31164-3.092 0.072-3.4718-0.54245-0.37416-0.60541-1.385-1.1007-2.2462-1.1007-2.2385 0-13.316-5.105-13.316-6.1366 0-0.47489-0.68131-0.86344-1.514-0.86344-1.2414 0-1.4207 1.0804-0.99558 6 0.31927 3.695 0.13257 6-0.48598 6-0.55243 0-0.97279 1.0125-0.93413 2.25 0.0671 2.1469 0.10966 2.1584 0.92971 0.25 0.93022-2.1647 0.89895-2.3493 1.4402 8.5 0.12346 2.475 0.55314 5.625 0.95485 7l0.73037 2.5-2.0404-2.5-2.0404-2.5-0.0222 4.25c-0.0231 4.4169 0.65698 5.1204 2.9002 3 1.0913-1.0316 1.1201-0.85685 0.16481 1-1.3326 2.5901-3.3118 2.8826-5.3967 0.79762-0.79881-0.79881-1.6658-1.2389-1.9268-0.97801-0.2609 0.2609-0.25722-1.7855 0.008-4.5476 0.32152-3.3446 0.10619-5.022-0.64453-5.022-0.72592 0-1.1272-2.4236-1.1272-6.8077v-6.8077h-5.022c-3.0958 0-5.53-0.55321-6.3466-1.4423-1.3894-1.5129-5.6314-14.368-5.6314-17.066 0-2.2424 2.8078-4.3708 8.0679-6.1159l4.5679-1.5154 1.2924 4.3773c0.71085 2.4075 1.6506 4.3773 2.0885 4.3773 0.4378 0 0.56065 0.9 0.27299 2s-0.073 2 0.47699 2c1.5383 0 2.3246-4.3226 0.94566-5.1989-0.83399-0.52999-0.6662-0.77524 0.5376-0.78578 0.9625-0.008 1.75-0.46531 1.75-1.0153 0-0.55-0.50248-1-1.1166-1-0.63324 0-0.88465-0.88711-0.58075-2.0492 0.38115-1.4575-0.41979-2.9189-2.7738-5.061-1.9722-1.7946-3.1393-3.6943-2.888-4.7008 0.50823-2.0355-4.9394-8.1344-9.1197-10.21-1.6384-0.81348-8.5809-5.1916-15.428-9.7291-6.8469-4.5375-12.798-8.25-13.224-8.25-0.42642 0-1.5393 1.61-2.473 3.5777-0.93375 1.9677-3.2325 4.7802-5.1084 6.25-2.1484 1.6833-4.8357 5.6331-7.261 10.672-3.0779 6.3951-4.7889 8.6606-8.529 11.293-3.5539 2.5014-4.5027 3.7035-3.9468 5 1.2531 2.9224 1.6992 7.0741 1.0416 9.6941-0.8472 3.3755-2.7427 3.2149-2.3804-0.20166 0.20448-1.9282-0.21901-2.8184-1.4622-3.0733-2.1777-0.44657-2.4078 3.3971-0.37807 6.3153 0.91239 1.3118 1.0907 2.7262 0.53222 4.2225-1.0255 2.7479-1.5366 2.7715-5.6542 0.26096-2.5526-1.5563-3.25-2.6534-3.25-5.112 0-3.1537 2.3955-11.692 4.3204-15.399 0.57117-1.1 2.9482-5.8825 5.2823-10.628 2.3341-4.7452 5.5449-10.145 7.1351-12 3.9913-4.6552 9.2602-13.541 9.272-15.637 0.0139-2.4682 4.7448-12.332 7.1421-14.891 1.7604-1.8791 1.8527-2.4564 0.71925-4.5-0.71513-1.2894-1.3321-2.5694-1.3711-2.8444-0.25959-1.8314-2.8188-5-4.0384-5-1.1621 0-1.3506-0.97775-0.90466-4.6928 0.30983-2.5811 0.76406-5.0176 1.0094-5.4146 0.24534-0.39697-0.016-0.87579-0.58081-1.064-1.5979-0.53262 1.1949-5.7202 3.5144-6.5282 1.1-0.38314 2.3219-0.61267 2.7153-0.51006 0.39342 0.10261 1.9684-0.32172 3.5-0.94296 1.5316-0.62123 4.2828-1.0285 6.1138-0.905 2.0248 0.13655 4.0817-0.45659 5.25-1.5139 1.0779-0.97546 1.9209-1.2404 1.9209-0.60375 0 0.62406 1.7928 2.0493 3.984 3.1672 4.4487 2.2696 5.6862 5.1153 4.0713 9.3627-1.2374 3.2545-0.48694 5.0247 4.8594 11.463 3.5526 4.278 3.6353 4.3135 9.0852 3.8931 11.287-0.87064 18.198-5.5769 36.032-24.536l4.7782-5.0798-4.6628-6.7886c-3.1292-4.5558-5.4826-6.9559-7.1552-7.2971-3.2439-0.66183-6.9924-3.1689-6.9924-4.6766 0-0.65284-1.348-2.2419-2.9955-3.5313-3.0862-2.4153-7.0045-11.477-7.0045-16.199 0-1.3465-1.125-3.7852-2.5-5.4193s-2.5-3.3989-2.5-3.9217c0-0.52286-0.95502-1.8079-2.1223-2.8556-1.1672-1.0478-3.4602-4.2675-5.0955-7.155-1.6352-2.8875-3.3087-5.25-3.7188-5.25-2.1221 0-8.9288-17.127-15.102-38-1.22-4.125-4.2539-11.325-6.7418-16-2.488-4.675-6.3254-11.875-8.5276-16s-4.3838-7.65-4.8478-7.8333c-0.46406-0.18334-0.84375-0.9017-0.84375-1.5964 0-1.65-2.8619-7.3669-4.058-8.1061-0.51221-0.31657-1.3996-1.4505-1.9719-2.5199-1.0283-1.9215 0.61594-1.9443 139.99-1.9443h141.04v385h-67.576l-3.7117-4.1604zm-39.452-70.83c2.5154-2.9377 1.267-10.686-2.2564-14.006-3.6791-3.4664-24.386-20.882-27.03-22.734-2.3505-1.6464-1.9761-0.87715 10.452 21.474 8.8775 15.966 14.402 20.444 18.835 15.267zm4.3471-5.5912c-0.33385-0.86998-0.60699-1.77-0.60699-2 0-0.23001-0.40787-0.41821-0.90638-0.41821s-0.67103 0.9-0.38337 2 0.96867 2 1.5134 2c0.5447 0 0.71721-0.7118 0.38337-1.5818zm-13.227-16.668c-0.40599-0.6875-1.7128-2.6-2.9041-4.25s-4.5464-7.725-7.4558-13.5c-6.8881-13.672-6.6666-13.423-9.7653-10.986-1.3884 1.0921-3.0835 1.9856-3.767 1.9856-0.68349 0-1.7818 0.64951-2.4406 1.4434-0.97858 1.1791-0.22295 2.4159 4.1276 6.7558 4.7954 4.7837 21.872 19.7 22.634 19.772 0.16996 0.016-0.0232-0.53351-0.42915-1.221zm-101.2-18.96c-0.71756-0.71756-1.1833-0.7766-1.1833-0.15 0 1.3348 1.1826 2.5174 1.85 1.85 0.28417-0.28416-0.0158-1.0492-0.66667-1.7zm-1.8936-4.7833c0.28766-1.1 0.11514-2-0.38336-2-0.49851 0-0.90638 0.9-0.90638 2s0.17252 2 0.38337 2 0.61871-0.9 0.90637-2zm-1.3753-5c-0.0503-2.2896-0.12731-2.3317-0.9144-0.5-0.47269 1.1-0.88417 2.9-0.9144 4-0.0454 1.6507 0.11431 1.738 0.9144 0.5 0.53316-0.825 0.94464-2.625 0.9144-4zm57.071-4.75c-0.008-0.4125-0.61332-2.4682-1.3445-4.5682-1.3606-3.9075-14.038-17.682-16.274-17.682-1.0436 0-5.366 7.504-5.366 9.3157 0 0.37636 1.26 0.68428 2.8 0.68428 3.4828 0 5.2 1.6372 5.2 4.9578 0 2.2264 0.87436 2.9048 6.75 5.237 7.4346 2.951 8.257 3.1562 8.2349 2.0553zm21.222-5.6277c2.039-2.2673 3.7266-4.9353 3.75-5.929 0.0234-0.99365-1.845-5.4729-4.1521-9.9538-3.0354-5.8955-4.25-9.5146-4.3948-13.095-0.13529-3.3455-0.71985-5.2384-1.8053-5.8458-0.88286-0.49408-1.6052-1.7062-1.6052-2.6936 0-0.98743-0.88306-2.5945-1.9624-3.5712-1.0793-0.97675-2.4511-3.2567-3.0484-5.0666-0.59731-1.8099-1.7392-3.5413-2.5376-3.8477-1.9045-0.73084-1.902 5.5231 0.0112 27.099 2.0471 23.087 4.0309 28.902 9.4275 27.637 1.4353-0.33633 4.278-2.4666 6.317-4.7338zm-26.757-10.872c-1.9884-6.2429-5.8738-15.714-6.4506-15.725-0.275-0.005-1.5235 1.8758-2.7744 4.1792l-2.2744 4.188 5.7431 5.8037c3.1587 3.192 6.0507 5.8037 6.4266 5.8037 0.37589 0 0.0743-1.9125-0.67019-4.25zm-31.99-21.68c0.31419-0.50837-0.18962-1.0709-1.1196-1.25-1.5642-0.30129-1.5572-0.45927 0.0931-2.1096 0.99945-0.99944 2.5521-1.5402 3.5306-1.2296 1.1333 0.35969 3.1154-0.7167 5.6446-3.0653 2.1439-1.9908 7.0611-5.7717 10.927-8.4019 3.866-2.6302 7.6336-5.5106 8.3724-6.4008 0.86341-1.0403 2.9072-1.6185 5.7208-1.6185 2.9567 0 4.3776-0.42796 4.3776-1.3185 0-3.7806-3.2972-11.592-5.9765-14.159-1.6629-1.5932-3.0235-3.6627-3.0235-4.5988 0-2.7749-3.274-5.7868-6.6214-6.0914-2.3385-0.21275-4.2196 0.60167-7.5 3.247-2.4082 1.9421-5.8318 4.5427-7.608 5.7793s-5.9175 5.5379-9.2028 9.5585c-3.2854 4.0206-7.5505 8.0586-9.4781 8.9733s-3.7697 2.0919-4.0937 2.6161c-0.79787 1.291 1.829 8.7779 5.2233 14.887 2.2202 3.9961 3.3855 5.0837 5.7807 5.3955 1.65 0.21479 3.3109 0.46254 3.691 0.55056 0.38004 0.088 0.94805-0.2559 1.2622-0.76428z"/> -->
    <!-- <path id="path3962" d="m0.062649 568.75v-187.5h75.584l-1.6774 9.9983c-0.92256 5.4991-2.5041 11.687-3.5146 13.75-1.9335 3.9483-4.4342 14.248-3.4614 14.257 0.31302 0.003 0.62438 4.1652 0.69192 9.25 0.0793 5.9699 0.68966 10.594 1.7229 13.052 1.2973 3.0868 1.5147 6.4932 1.1487 18-0.43613 13.713-0.53671 14.262-2.9729 16.23-1.3868 1.1206-2.5215 2.7182-2.5215 3.55 0 0.83184-0.52649 2.0389-1.17 2.6824-2.9054 2.9054 5.0703 15.374 21.405 33.464 3.7042 4.1022 7.914 10.034 9.355 13.182 1.4411 3.1477 3.5854 6.1777 4.7651 6.7333 1.1797 0.55558 4.395 3.8751 7.145 7.3767 5.0158 6.3866 12.781 12.58 19.712 15.723 2.0417 0.92571 3.9266 1.3362 4.1886 0.91215 1.4997-2.4265-3.8075-14.335-6.921-15.53-1.5603-0.59876-2.0965-4.6306-0.61576-4.6306 1.4586 0 6.136-7.4733 6.136-9.8038 0-1.7722 0.57756-2.1962 2.9915-2.1962 1.9085 0 3.4437-0.72405 4.2405-2 0.68696-1.1 1.6125-2 2.0568-2 0.44427 0 2.4735-0.80248 4.5095-1.7833 11.056-3.578 19.814 2.5338 23.769 9.9071 3.444 6.6492 1.3325 16.987-4.0591 19.872-3.79 2.0283-3.6583 3.4208 0.91347 9.6582 6.7243 9.1742 22.103 43.632 23.273 52.145 0.58651 4.268 0.54024 4.3473-6.3019 10.807-8.1537 7.698-17.06 14.183-23.643 17.216-4.91 2.2618-5.8395 4.0288-3.25 6.1779 0.825 0.68469 1.5 1.8321 1.5 2.5498 0 2.2824 6.8147 14.477 9.2027 16.468 2.7702 2.3096 1.9158 2.476-2.7348 0.53289-3.4306-1.4334-3.4678-1.4215-3.4678 1.107-0.77203 4.7326-8.2305 8.8919-13.576 7.2787-5.7518-1.0288-11.07-4.7388-10.104-9.7866 0.38173-1.9087 0.22251-3.1501-0.40401-3.1501-0.56871 0-0.78504-0.40285-0.48074-0.89522 0.97857-1.5834-1.9583-1.9318-4.4856-0.53223-1.3473 0.74612-2.0856 1.3725-1.6406 1.392 0.44496 0.0195 0.45797 0.59794 0.0289 1.2854-1.3436 2.1529-1.4586 4.9426-0.17103 4.1468 0.79007-0.48829 0.96452-0.18174 0.5344 0.93912-0.37606 0.98001-0.13762 1.6929 0.58006 1.7343 0.67024 0.0387 0.31862 0.42179-0.78138 0.8514-1.5828 0.61817-2.3833 0.15129-3.8373-2.238-1.4431-2.3713-2.0253-2.7149-2.7135-1.6014-0.48191 0.77976-1.3426 1.474-1.9127 1.5427-1.5568 1.5361-7.0503 4.5512-7.7922 4.8642-8.8903 3.2384-20.611 0.91489-28.592-2.98-7.6713-5.1636-16.814-11.183-23.218-14.96-2.0504-1.3435-2.2715-1.2848-2.8162 0.74649 0.61013 10.306 0.17183 21.956 1.8247 31.253 0.60234 3.2107 0.98558 3.6029 3.1218 3.1946 1.3393-0.25603 2.4352-0.0779 2.4352 0.39582 0 1.8416 0.22942 2.3851 1.2812 3.0351 0.76028 0.46988 0.68244 1.1651-0.25722 2.2973-1.0783 1.2992-1.5322 1.3644-2.2724 0.32621-0.6162-0.86421-0.71614-0.4627-0.29935 1.2027 2.644 10.565 1.6406 12.073-8.5851 12.91-5.557 0.45453-8.1601 1.1755-10.288 2.8493-1.5668 1.2324-3.9045 2.2408-5.1948 2.2408-2.2925 0-2.8034 0.86639-3.8681 6.5588-0.19968 1.0676-0.39749 2.7552-0.43957 3.7502-0.0421 0.99496-0.47949 1.56-0.97201 1.2556-1.0795-0.66717-2.2244 5.7812-2.4441 13.766-0.12298 4.4695-0.60782 6.1577-2.0771 7.2321-1.1559 0.8453-1.9167 2.5995-1.9167 4.4195v3.0179h-26.666zm41.51 121.49c0.34546-0.55897 1.047-0.75742 1.559-0.44098 0.512 0.31643 0.93091-0.16376 0.93091-1.0671 0-2.1746-3.7187-16.673-5.1804-20.198-1.275-3.0744-1.511-3.8094-1.6946-5.2777-0.0687-0.55-0.63513-1-1.2586-1-0.81457 0-0.94907 2.9649-0.4779 10.535 0.80917 13 3.7283 21.321 6.1216 17.449zm126.07-76.5c2.0516-2.6898 2.2653-3.5134 1.2068-4.6504-0.70753-0.75991-1.435-2.0417-1.6166-2.8484-1.085-2.4157-2.6771-4.6605-3.5993-6.7356-1.0309-2.3375-1.9941-4.25-2.1406-4.25-1.2857 2.0969-28.298 35.687-18.322 43.067 10.388-2.2064 19.553-18.046 24.471-24.583zm-90.678 2.5156c-0.4962 0-0.90217 0.44609-0.90217 0.9913-0.92502 2.2973-6.9654 6.7175-4.9614 8.0585 3.1337-0.25006 4.3314 1.6778 6.7114 2.5621 7.2787 2.6996-0.55135-11.534-0.84783-11.612zm-20.923-3.3011c3.4348-3.9594 6.9168-8.7598 7.7379-10.668 1.7173-3.9902 7.4441-9.8451 13.157-13.451l3.941-2.4879 3.9512 1.909c4.684 2.2631 12.292 10.328 17.786 18.854 3.872 6.0091 5.4161 7.3882 5.4813 4.8955 0.018-0.6875 0.4218-4.2668 0.89734-7.9539 0.74832-5.8022 0.59468-7.2495-1.1421-10.76-2.5926-5.24-1.8625-9.162 2.7963-15.022l3.5663-4.4858-4.851-4.5142c-6.6783-6.2145-12.875-13.888-19.795-24.514-3.2239-4.95-7.0186-10.398-8.4329-12.107-1.4142-1.709-3.3374-4.0516-4.2737-5.2059-0.93633-1.1542-4.8532-7.406-8.7042-13.893-10.772-18.145-10.81-18.184-12.885-13.544-1.5289 3.4185-3.3832 6.5506-5.1094 8.6306-0.72756 0.87666-1.0577 2.2849-0.73364 3.1293 0.32736 0.85309-0.28951 2.4141-1.3881 3.5127-1.0875 1.0875-1.9773 2.6042-1.9773 3.3703 0 0.76616-0.675 1.652-1.5 1.9686-0.825 0.31658-1.5 1.7147-1.5 3.107 0 1.7141-0.56501 2.5569-1.75 2.6103-1.1025 0.0497-0.73256 0.45055 1 1.0833 3.189 1.1647 3.404 2.8337 1.3208 10.25-3.4654 12.336-3.4838 12.523-1.9214 19.418 0.83124 3.6684 1.7501 10.045 2.0418 14.17 0.29177 4.125 0.93183 8.2602 1.4224 9.1893 0.53911 1.0211 0.51255 1.9238-0.0672 2.282-0.52746 0.32599-0.71214 1.2361-0.41038 2.0224 0.30175 0.78636-0.17339 2.8771-1.0559 4.6461-0.88248 1.769-1.8813 5.7237-2.2196 8.7882-0.33827 3.0646-1.3474 6.9219-2.2425 8.5719-1.053 1.941-1.5217 4.7782-1.3279 8.0375l0.29958 5.0375 5.822 0.16137 5.822 0.16137 6.245-7.1989z"/> -->
  </g>
  <metadata>
    <rdf:RDF>
      <cc:Work>
        <dc:format>image/svg+xml</dc:format>
        <dc:type rdf:resource="http://purl.org/dc/dcmitype/StillImage"/>
        <cc:license rdf:resource="http://creativecommons.org/licenses/publicdomain/"/>
        <dc:publisher>
          <cc:Agent rdf:about="http://openclipart.org/">
            <dc:title>Openclipart</dc:title>
          </cc:Agent>
        </dc:publisher>
        <dc:title>Escalade</dc:title>
        <dc:date>2012-01-14T06:28:58</dc:date>
        <dc:description>Diff&#xC3;&#xA9;rentes poistions en escalade</dc:description>
        <dc:source>http://openclipart.org/detail/167045/escalade-by-cyrille</dc:source>
        <dc:creator>
          <cc:Agent>
            <dc:title>cyrille</dc:title>
          </cc:Agent>
        </dc:creator>
        <dc:subject>
          <rdf:Bag>
            <rdf:li>climb</rdf:li>
            <rdf:li>clip art</rdf:li>
            <rdf:li>clipart</rdf:li>
            <rdf:li>escalade</rdf:li>
            <rdf:li>montagne</rdf:li>
            <rdf:li>mountain</rdf:li>
            <rdf:li>silhouette</rdf:li>
            <rdf:li>sport</rdf:li>
          </rdf:Bag>
        </dc:subject>
      </cc:Work>
      <cc:License rdf:about="http://creativecommons.org/licenses/publicdomain/">
        <cc:permits rdf:resource="http://creativecommons.org/ns#Reproduction"/>
        <cc:permits rdf:resource="http://creativecommons.org/ns#Distribution"/>
        <cc:permits rdf:resource="http://creativecommons.org/ns#DerivativeWorks"/>
      </cc:License>
    </rdf:RDF>
  </metadata>
</svg>
